<?xml version="1.0" encoding="utf-8"?>
<!-- Generator: Adobe Illustrator 22.1.0, SVG Export Plug-In . SVG Version: 6.00 Build 0)  -->
<svg version="1.1" id="圖層_1" xmlns="http://www.w3.org/2000/svg" xmlns:xlink="http://www.w3.org/1999/xlink" x="0px" y="0px"
	 viewBox="0 0 370 370" style="enable-background:new 0 0 370 370;" xml:space="preserve">
<style type="text/css">
	.st0{fill:none;stroke:#FFFFFF;stroke-width:3.58;stroke-miterlimit:10;}
	.st1{fill:#FFFFFF;}
</style>
<title>qr</title>
<rect x="7.8" y="7.8" class="st0" width="354.4" height="354.4"/>
<g>
	<path class="st1" d="M74.6,158.4v7.2h-8v-45.6c-2.4,3.2-4.9,6.4-7.4,8.8c-0.9-1.4-3.4-5-5-6.6c7.4-7.3,14.5-17.9,18.7-28.7l7.3,2.2
		c-1.1,2.8-2.4,5.4-3.7,8.3h16.7c-1.2-2.4-2.7-5-4.2-7.2l6.8-2.8c2.3,3,4.6,6.9,6,10h19v7.3h-20.3v8.1h17.5v6.9h-17.5v8.4h18.3v7
		h-18.3v9.5h19.4v7.3H74.6z M74,58.1H54.8v-7.7H74v-8.5h8.8v24.2H74V58.1z M60.5,68.8h26v24h-26V68.8z M67.1,86.6h12.5V74.9H67.1
		V86.6z M91.8,111.1H74.6v8.1h17.2V111.1z M91.8,126.2H74.6v8.4h17.2V126.2z M91.8,141.6H74.6v9.5h17.2V141.6z M119.8,92.6h-26V68.8
		h26V92.6z M106.3,66.2h-8.9V41.8h8.9v8.5h19.4v7.7h-19.4V66.2z M113,74.9h-12.6v11.6H113V74.9z M138.4,71.7
		c-3,12.2-6.9,23.3-11.8,31.5c-1.6-1.6-5.7-4.6-8-6c8.3-13.3,13.1-34.1,15.7-55.6l9.3,1.6c-0.8,6.5-1.9,12.9-3.1,19.1h31l1.6-0.4
		l6.1,2.2c-2.6,11.9-6.2,26-9.7,34.8l-7.4-2.6c2.3-6.2,4.9-15.7,6.8-24.6H138.4z M152.8,84.7c0,4.7-0.1,10-0.5,15.6
		c4.2,25,13,47.7,28.2,57.5c-2.2,1.8-5.1,5.4-6.6,8.3c-11.8-8.8-19.5-24.6-24.8-43.6c-3.4,14.6-10,30.1-22.6,43.5
		c-1.6-2.3-5-5.3-7.3-6.6c23-24.1,24.6-54.2,24.6-74.7V77h9.1V84.7z"/>
	<path class="st1" d="M223.8,106.5c-2.4,11.9-6.5,25-11.1,34.9c2.7,1.5,5.8,4.1,10.8,7c9.6,5.8,21.8,6.8,37.8,6.8
		c17.5,0,39.4-1.4,54.6-2.8c-1.4,2.7-2.8,7.4-3.1,10.4c-10,0.7-35.7,1.5-51.9,1.5c-17.6,0-29.5-1.5-39.4-7.4
		c-5.4-3.2-10.6-7.9-13.5-7.9c-3.1,0-7.6,8.5-11.4,17.1l-7-9.1c4.7-6.8,9.3-12.3,13.5-15c4.1-7.7,7.4-18.4,9.6-28.2h-17.6
		c3.7-8,8-19.5,11.6-30.2h-15.2v-9.1h27.8c-3.2,9.7-7.6,21.1-11.1,30.5h9.2l1.8-0.4L223.8,106.5z M205.5,67.5
		c-1.6-5.8-4.6-15.2-6.9-22.2l8.9-2.7c2.3,7,5.4,16,7.2,21.8L205.5,67.5z M263.7,112.6c0,2.7,0.4,6.6,0.7,8.8
		c-26.5,9.1-30.5,10.7-32.9,12.6c-0.7-2.3-2.6-6.2-4.2-8.1c2.3-1.2,5.7-4.2,5.7-9.6V55c9.9-3.7,21-8.8,27.3-13.4l7.2,7.3
		c-7,4.3-16.4,8.1-25.2,11.2v59.2L263.7,112.6z M277.7,148.4h-9.2V52h40.3v69.5c0,4.9-0.9,7.4-4.5,9.1c-3.2,1.5-8.5,1.6-16.8,1.6
		c-0.5-2.6-1.9-6.4-3.1-8.8c6,0.3,11.2,0.1,12.9,0.1c1.6,0,2.2-0.5,2.2-2.2V60.8h-21.8V148.4z"/>
	<path class="st1" d="M102.3,246.5h5.8v19.4h-6.2v51.9c0,4.3-0.8,6.5-3.8,8c-3,1.2-7.6,1.4-15.2,1.4c-0.4-2.2-1.8-5.4-2.8-7.7
		c5.3,0.1,10,0.1,11.4,0.1c1.5,0,1.9-0.5,1.9-1.9v-17.7c-6.4,3.9-12.5,7.7-18.1,11l-3.8-7.2c5.8-2.4,13.7-6.5,21.9-10.8V270H72.1
		v18.1c0,12.3-1.4,28.8-9.3,40.3c-1.5-1.6-5-4.5-7-5.4c7-10.3,7.9-24.2,7.9-34.9v-22.2H57v-19.4h5.6v-37.4h39.8V246.5z M100.2,253.8
		H64.7v8.9h35.5V253.8z M70.8,246.5h8.4v-21h14.8v-8.7H70.8V246.5z M87.3,291.6c-3.2-3.2-9.3-8.5-14.4-11.9l4.6-4.6
		c5.4,3.4,11.6,7.9,14.8,11L87.3,291.6z M93.9,246.5v-14.6h-8.8v14.6H93.9z M178.8,317.5v7.9h-70v-7.9h19.4c-1.2-4.1-3-8.9-4.7-12.7
		l7.9-2.3c2,4.6,4.5,10.7,5.8,15h13c2-4.7,4.5-11.1,5.8-15.4l9.2,2.7c-2.3,4.2-4.7,8.9-6.8,12.7H178.8z M177.6,270.2h-67.4v-7.6
		h67.4V270.2z M174.2,255.6h-61.1v-40.8H130v-10.3h8.3v10.3h9.7v-10.3h8.3v10.3h18V255.6z M116.8,301.8v-25H171v25H116.8z
		 M121,231.6h10.4V222H121V231.6z M121,248.4h10.4v-10H121V248.4z M125.8,295h35.9v-11.4h-35.9V295z M148.4,231.6V222h-10.2v9.6
		H148.4z M138.2,238.4v10h10.2v-10H138.2z M166.1,222h-11v9.6h11V222z M166.1,238.4h-11v10h11V238.4z"/>
	<path class="st1" d="M189.7,316.7c2.7-7.7,5-20.7,6.1-29.7l5.7,1.9c-1.1,8.9-3.2,22.2-5.8,30.1L189.7,316.7z M242.2,275.9
		c-1.1,33-2,44.3-4.9,48.1c-1.8,2.3-3.7,3.2-6.8,3.5c-2.4,0.3-6.6,0.3-10.6,0c-0.3-2.4-1.1-5.7-2.3-7.9c4.1,0.4,7.7,0.4,9.3,0.4
		c1.5,0,2.4-0.1,3.2-1.5c1.8-2.3,2.7-11.8,3.5-38h-37v-70.1h45.2v8.5h-16.9v12.5h14.2v8h-14.2v11.9h14.4v8h-14.4V272h17.1V275.9z
		 M209.2,289.1c0.9,7.6,1.8,17.6,1.9,24.4l-5.4,0.5c0-6.6-0.7-16.7-1.6-24.4L209.2,289.1z M205,218.9v12.5h12v-12.5H205z M217,239.4
		h-12v11.9h12V239.4z M205,272h12v-12.7h-12V272z M216.9,287.2c2.2,6.9,4.5,16,5.4,21.8l-5.1,1.2c-0.8-6-3.1-15-5.1-22.1
		L216.9,287.2z M227.6,303.8c-1.6-4.7-4.7-12.2-7.7-17.9l4.6-1.6c2.8,5.7,6.4,13,7.7,17.6L227.6,303.8z M257.8,236.4
		c-3.7,2.8-7.7,5.7-11.8,8.1c-1.5-1.8-4.6-4.9-6.5-6.2c15.3-8.8,29-22.2,36-35.1l9.2,2.8c-0.7,1.5-1.6,3-2.6,4.3
		c8.3,9.2,21.5,19.1,32.6,24.5c-1.6,2.2-3.7,6.1-4.5,8.7c-3.9-2.3-8.3-5-12.3-8.3v7.3h-40.2V236.4z M266,290.3
		c-0.7,3.7-1.8,7.3-3,10.8c5.6,3.5,11.8,8.3,15,11.6l-5.4,6.6c-2.6-3-7.7-7.2-12.7-10.7c-3.5,7.7-8.1,14.5-13.7,19.5
		c-1.4-1.5-4.7-4.5-6.8-5.8c8.9-7.9,15-19.8,18-33.7L266,290.3z M247.8,253.3h26.7v31.1h-26.7V253.3z M254.8,277.4H267v-17.2h-12.2
		V277.4z M297,234.6c-7-5.3-14.1-11.5-19.6-17.6c-5,6.4-10.8,12.3-17.3,17.6H297z M300,289.5c-0.9,5.1-2.2,10-3.9,14.6
		c6.5,4.6,13.8,10.4,17.6,14.5l-6.1,6.9c-3.1-3.8-9.1-8.9-15-13.5c-3.2,6.2-7.3,11.8-11.8,16c-1.6-1.5-5.3-4.3-7.6-5.8
		c9.3-7.7,15.2-19.8,17.7-34.1L300,289.5z M280.8,253.3h27.8v31.1h-27.8V253.3z M288.1,277.4H301v-17.2h-12.9V277.4z"/>
</g>
</svg>
