<?xml version="1.0" encoding="utf-8"?>
<!-- Generator: Adobe Illustrator 22.1.0, SVG Export Plug-In . SVG Version: 6.00 Build 0)  -->
<svg version="1.1" id="圖層_1" xmlns="http://www.w3.org/2000/svg" xmlns:xlink="http://www.w3.org/1999/xlink" x="0px" y="0px"
	 viewBox="0 0 370 370" style="enable-background:new 0 0 370 370;" xml:space="preserve">
<style type="text/css">
	.st0{fill:#FFFFFF;}
	.st1{fill:none;stroke:#FFFFFF;stroke-width:3.58;stroke-miterlimit:10;}
</style>
<title>qr</title>
<g>
	<g>
		<g>
			<path class="st0" d="M66.7,155.2v6.7h-7.5v-42.9c-2.3,3.1-4.6,6-7,8.3c-0.9-1.3-3.2-4.7-4.7-6.2c7-6.9,13.6-16.8,17.6-27l6.9,2
				c-1,2.7-2.3,5.1-3.4,7.8h15.6c-1.1-2.3-2.5-4.7-3.9-6.7l6.4-2.7c2.2,2.8,4.3,6.5,5.6,9.4h17.8v6.9H90.8v7.6h16.4v6.5H90.8v7.9
				H108v6.6H90.8v8.9H109v6.9H66.7z M66.2,60.9H48.1v-7.3h18.1v-8h8.3v22.8h-8.3V60.9z M53.4,71h24.4v22.5H53.4V71z M59.7,87.8h11.7
				V76.7H59.7V87.8z M82.8,110.8H66.7v7.6h16.2V110.8z M82.8,124.9H66.7v7.9h16.2V124.9z M82.8,139.4H66.7v8.9h16.2V139.4z
				 M109.2,93.4H84.7V71h24.4V93.4z M96.4,68.6H88V45.7h8.4v8h18.2v7.3H96.4V68.6z M102.8,76.7H91v10.9h11.8V76.7z M126.6,73.8
				c-2.8,11.5-6.5,21.9-11.1,29.6c-1.5-1.5-5.3-4.3-7.5-5.6c7.8-12.5,12.3-32.1,14.8-52.3l8.8,1.5c-0.8,6.1-1.8,12.1-2.9,17.9h29.1
				l1.5-0.4l5.7,2c-2.4,11.2-5.9,24.4-9.2,32.7l-7-2.4c2.2-5.8,4.6-14.8,6.4-23.2H126.6z M140.2,86c0,4.5-0.1,9.4-0.5,14.6
				c3.9,23.5,12.2,44.8,26.5,54.1c-2,1.7-4.8,5.1-6.2,7.8c-11.1-8.3-18.3-23.2-23.3-41c-3.2,13.7-9.4,28.2-21.2,40.8
				c-1.5-2.2-4.7-5-6.9-6.2c21.6-22.6,23.2-50.9,23.2-70.2v-7.1h8.5V86z"/>
			<path class="st0" d="M221.9,106.5c-2.3,11.2-6.1,23.5-10.4,32.8c2.5,1.4,5.5,3.8,10.2,6.6c9,5.5,20.5,6.4,35.5,6.4
				c16.4,0,37-1.3,51.3-2.7c-1.3,2.5-2.7,7-2.9,9.8c-9.4,0.6-33.6,1.4-48.7,1.4c-16.5,0-27.7-1.4-37-7c-5.1-3.1-9.9-7.4-12.7-7.4
				c-2.9,0-7.1,8-10.7,16l-6.6-8.5c4.5-6.4,8.8-11.6,12.7-14.1c3.8-7.3,7-17.3,9-26.5h-16.5c3.4-7.5,7.5-18.3,10.9-28.4h-14.2v-8.5
				h26.1c-3.1,9.2-7.1,19.8-10.4,28.6h8.6l1.7-0.4L221.9,106.5z M204.7,69.9c-1.5-5.5-4.3-14.2-6.5-20.9l8.4-2.5
				c2.2,6.6,5.1,15,6.7,20.5L204.7,69.9z M259.4,112.2c0,2.5,0.4,6.2,0.6,8.3c-24.9,8.5-28.6,10.1-30.9,11.8
				c-0.6-2.2-2.4-5.9-3.9-7.6c2.2-1.1,5.3-3.9,5.3-9V58c9.3-3.4,19.7-8.3,25.7-12.6l6.7,6.9c-6.6,4.1-15.4,7.6-23.7,10.6v55.6
				L259.4,112.2z M272.5,145.8h-8.7V55.2h37.9v65.3c0,4.6-0.9,7-4.2,8.5c-3.1,1.4-8,1.5-15.8,1.5c-0.5-2.4-1.8-6-2.9-8.3
				c5.6,0.3,10.6,0.1,12.1,0.1c1.5,0,2-0.5,2-2V63.5h-20.5V145.8z"/>
			<path class="st0" d="M49.5,239.1H91v7.8H49.5V239.1z M88.8,326h-26v6h-8.1v-42.8h34.1V326z M88.5,263.3H54.8v-7.5h33.7V263.3z
				 M54.8,272.4h33.7v7.5H54.8V272.4z M70.7,237.7c-1.9-4.7-6-11.7-9.4-17l7.4-3.7c3.6,5.2,7.8,11.8,9.5,16.3L70.7,237.7z
				 M62.8,297.2v21h17.7v-21H62.8z M115,309.3c5.7-1.5,11.8-3.2,17.8-4.7l0.9,8c-14,4.3-28.8,8.4-40.1,11.7l-2.7-9.2
				c4.5-1,9.7-2.3,15.4-3.7v-33.6H93v-8.5h35.6v8.5H115V309.3z M140.6,251.4c1.8,42.5,7.8,73.3,14.5,73.3c1.9,0,3.1-6.5,3.4-20.7
				c2,2,5,4.2,7.1,5.1c-1.4,19-3.9,24.9-11.8,24.9c-14.3,0-20.1-36.4-22.1-82.6H94.1v-8.9h37.1c-0.3-8-0.4-16.2-0.5-24.6h9.3
				c-0.1,8.5,0,16.7,0.3,24.6H165v8.9H140.6z M154.4,240.4c-2-4.3-6.7-11.3-11.2-16.4l6.6-3.7c4.5,4.7,9.3,11.3,11.4,15.6
				L154.4,240.4z"/>
			<path class="st0" d="M303.7,318.3v9.4H190.3v-9.4h47.5v-98.7h9.9v38.9H295v9.4h-47.3v50.4H303.7z"/>
		</g>
	</g>
	<rect x="6.8" y="6.8" class="st1" width="354.4" height="354.4"/>
</g>
</svg>
