<svg id="Layer_1" data-name="Layer 1" xmlns="http://www.w3.org/2000/svg" viewBox="0 0 408.79 408.79"><defs><style>.cls-1{fill:#00c200;}.cls-2{fill:#fff;}.cls-3{fill:#00c500;}</style></defs><title>line</title><rect class="cls-1" width="408.78" height="408.79" rx="55.5" ry="55.5"/><path class="cls-2" d="M369.8,196.13A81.88,81.88,0,0,0,371.12,186a125.3,125.3,0,0,0-.16-13c-4-70.41-77.09-126.51-166.61-126.51-92.12,0-166.8,59.4-166.8,132.67,0,67.35,63.09,123,144.82,131.53a9.06,9.06,0,0,1,8,10l-3.48,31.33a9.09,9.09,0,0,0,13,9.17C269,328,310.29,293.68,335,264c4.49-5.41,19.12-25.91,22.1-31.29A111.68,111.68,0,0,0,369.8,196.13Z"/><path class="cls-3" d="M112.63,206.12V150.23a8.53,8.53,0,0,0-8.53-8.53h0a8.53,8.53,0,0,0-8.53,8.53v64.42a8.53,8.53,0,0,0,8.53,8.53h34.13a8.53,8.53,0,0,0,8.53-8.53h0a8.53,8.53,0,0,0-8.53-8.53Z"/><path class="cls-3" d="M165.26,223.18h-3.73a6.67,6.67,0,0,1-6.67-6.67V148.37a6.67,6.67,0,0,1,6.67-6.67h3.73a6.67,6.67,0,0,1,6.67,6.67v68.14A6.67,6.67,0,0,1,165.26,223.18Z"/><path class="cls-3" d="M234.21,150.23v39.36s-34.08-44.45-34.6-45a8.47,8.47,0,0,0-6.69-2.85,8.76,8.76,0,0,0-8.2,8.87v64.07a8.53,8.53,0,0,0,8.54,8.53h0a8.53,8.53,0,0,0,8.53-8.53V175.54s34.59,44.83,35.1,45.31a8.46,8.46,0,0,0,5.77,2.33,8.85,8.85,0,0,0,8.61-8.89V150.23a8.53,8.53,0,0,0-8.53-8.53h0A8.53,8.53,0,0,0,234.21,150.23Z"/><path class="cls-3" d="M315.26,150.23h0a8.53,8.53,0,0,0-8.53-8.53H272.6a8.53,8.53,0,0,0-8.53,8.53v64.42a8.53,8.53,0,0,0,8.53,8.53h34.13a8.53,8.53,0,0,0,8.53-8.53h0a8.53,8.53,0,0,0-8.53-8.53h-25.6V191h25.6a8.53,8.53,0,0,0,8.53-8.53h0a8.53,8.53,0,0,0-8.53-8.53h-25.6V158.76h25.6A8.52,8.52,0,0,0,315.26,150.23Z"/></svg>