<svg id="圖層_1" data-name="圖層 1" xmlns="http://www.w3.org/2000/svg" viewBox="0 0 346.13 51.55"><defs><style>.cls-1{fill:#49b9bb;}.cls-2{fill:#fff;}</style></defs><title>logo_footer</title><path class="cls-1" d="M350.35,37.37h0c-.84.32-.87,1-.79,1.75a1.15,1.15,0,0,0,.55.91h0a.79.79,0,0,0,.54.65,2.39,2.39,0,0,0,3.36.37l.06,0c1.19-.75.95-2.21.72-3.3a1.72,1.72,0,0,0-2.14-1.16l-.23.09h0a.62.62,0,0,0-.77,0C350.9,36.33,350.46,36.57,350.35,37.37Z" transform="translate(-8.85 -4.39)"/><path class="cls-1" d="M53.2,16.84h0C52.63,8.42,46.56,6.21,39.71,4.9c-3.86-1.48-6.82.53-9.79,2.5h0c-3-.35-5.52.48-7.29,3.07C8.67,16.31,7,28.5,10.29,40.28,13.82,53.06,27.63,55,38,55.88c9.52.82,16.15-7.46,16.16-18.41h0c2.64-1.62,3-4,2.39-6.81C61.07,24.68,60.13,20,53.2,16.84Z" transform="translate(-8.85 -4.39)"/><path class="cls-2" d="M43.64,32.89c-.36-.48-1.36-1.72-1.39-1.27-.14,2.15,2.83,9.15,1.84,10.22-.75.8-5.42-3.64-6-5.54-1.77-6.21-.86-12.56-.36-18.87.13-3.29-1.91-4.76-5-3.57-4.16,1.62-6.48,5.25-9.3,8.34-.87.95-1.71,1.93-2.55,2.9a.14.14,0,0,1-.18-.1c.05-1.14.1-2.29.16-3.43,0-.48.1-.95.11-1.43a5.39,5.39,0,0,0-.08-1.2,1.91,1.91,0,0,0-1.27-1.25A3.12,3.12,0,0,1,20,20a174.68,174.68,0,0,1-5.47,23.7,3,3,0,0,0,1.93,3.78h0A1.2,1.2,0,0,0,17.53,47c.41-2.19.7-4.39,1-6.59.7-4.32.66-9,2.3-12.9,2.42-5.79,8.93-7.76,13.36-11.76.8-.72.83.53,1,1.07,1.28,4-.19,8.17.68,12.21.12.54,0,1.45-.71,1.42-2.59-.08-4.46,1.73-6.76,2.37-.45.12-.88.26-1.32.4a.15.15,0,0,1-.19-.11.09.09,0,0,1,0,0c.08-.66.62-1,1.06-1.44,1.51-1.53,3-3.08,4.4-4.73a1.28,1.28,0,0,0-.05-1.81,1.36,1.36,0,0,0-.41-.26,1.2,1.2,0,0,1-.49-1c.11-.73,1-1.51,0-2.14a1.17,1.17,0,0,0-1.61.37,1.14,1.14,0,0,0-.1.19c-.51,1.15-1.3,2.48-.19,3.57.69.68.49,1,.09,1.53-1.22,1.5-2.5,2.95-3.69,4.46-.81,1-2,2.36-1.21,3.46s2.33,0,3.52-.29c.89-.26,1.79-.47,2.68-.7a.16.16,0,0,1,.19.13v0c-.21,1-.39,1.91-.66,2.84-.58,2-.84,3.65,2.11,3.71a3.17,3.17,0,0,1,2.06,1.23,4.28,4.28,0,0,1-.22,5.2c-1.39,1.89-3.79.7-5.77.63-.5,0-1.13-.21-1-1s.31-2,1.35-2.22c.83-.15.82.82.92,1.44.31,1.77,1.3,2,2.6,1s.84-2.45,0-3.31a3.75,3.75,0,0,0-4.84-.29c-1.22.82-2.45,2-2.2,3.84A1.66,1.66,0,0,0,27.15,49a10.65,10.65,0,0,1,2.76.8c1.95.55,3.9,1.94,5.87-.46,3.21-3.91,2.8-8.27-1.18-9.5-.88-.27-2.34-.37-2.08-1.42.51-2,3,0,4-1.38a.16.16,0,0,1,.21,0l0,0,.7.68c.23.22,6.83,6.83,10.83,6.83.36,0,3.18.33,3.77-1.33C52.56,41.79,45.67,35.68,43.64,32.89Zm-8.65,1c-.18.22-.3.31-.42.27-.48-.19-.85-.34-1.31-.56a.15.15,0,0,1-.06-.2.17.17,0,0,1,.06-.06c.29-.21.59-.47.85-.43s.57.45.89.78a.15.15,0,0,1,0,.16Z" transform="translate(-8.85 -4.39)"/><path class="cls-2" d="M21.37,15.76a.17.17,0,0,0,.24,0h0a8.32,8.32,0,0,0,.74-1.42c.12-.33,0-.33-.21-.64a.15.15,0,0,0-.22-.06.12.12,0,0,0-.06.06,8.7,8.7,0,0,0-.7,1.77C21.14,15.68,21.26,15.64,21.37,15.76Z" transform="translate(-8.85 -4.39)"/><path class="cls-2" d="M68.62,38.44l-.3-.3-.49-1.3,1.26-.22,2.14-.32L73,36.05V32.44H68.32V32H73V30.15H70l-.68.47-1.88,1.11-.11-.17,2.35-2.09,1.9-1.86,1-1.18L73,25.9l.41-.62,1.07.88.15.38h-.45l.85.21.62.19,1.11.45.49.26.47.26.45.25.79.58.19.47L79,29.7l-.49.21L78,29.72l-.26-.3-.66-.59-.38-.3-.88-.62L74,26.77l-1,1-1.3,1.14-.73.58-.28.19h4.38l1.16-1.13,1.36,1.13v.47H74.43V32h2.18l1.15-1.16L79.13,32v.45h-4.7v3.41l.69-.08.17-.28.81-1.56.36-.81.07-.15h0l.13-.19,1.11.81.17.36H77.4l-.51.56-.77.7-.3.24-.3.23h0l1.69-.2,1.28-.1,1.32-.11v.21l-2.52.62L68.77,38Zm.19-11.75-.34-.21-.79-1.16,1-.4V19.13l1.2.59,2.67-1.15.62-.3v.17l1.07.92v.34l-.47-.19-.21.06-.36.09-.35.06-.38.07-.39.06L70.84,20l-.79.05v4.31l1.8-.7.47-.15h.06l-.08-.3L72.21,23,72,22.4l-.14-.3-.18-.32-.21-.28.15-.14.28.23.3.21.55.5.24.25.21.28.19.3.17.3.15.32.13.34-.08.51-.43.3-.53-.1-.3-.43V24l-.32.26-1.26.88L69.5,26l-.57.32ZM71,36.09l-.38-.34v-.19l-.07-.22-.08-.21-.22-.47-.44-.75-.18-.28-.23-.23.13-.15.28.19.29.15.56.34.24.17.23.22.43.4.19.22.17.23v.53l-.34.39ZM73.79,25.3l-.13-.19.37-.45.32-.47.27-.49.26-.51.21-.54.17-.58.15-.59.11-.67.07-.66V19.7h-1.2v-.47H78.7l.71-.57,1.26,1-.58.34h0v1.61L80,22.1v.83l-.09.38-.06.35-.11.32-.08.27-.13.26-.17.24-.19.21-.22.19-.25.15-.26.11-.28.08-.28.05h-.29v-.69l-1.84-.34v-.36h2.33L78,24l.13-.11.06-.1,0-.11.06-.15.06-.24.07-.27.1-.69L78.6,22V19.7H77l-.08.6-.17.75-.19.73-.26.66-.3.62-.34.55-.37.52-.44.47-.5.38Zm7.39,9.34V20.15l1.39.24.34.23-.34.19V33.93Zm3.38,3.78v-.69l-2.31-.34v-.34h2.67V18.44l1.37.22.34.23-.34.21V37.16l-.11.28-.12.25-.2.24-.23.19-.26.15-.27.08h-.28Z" transform="translate(-8.85 -4.39)"/><path class="cls-2" d="M91.17,38.48,91,38.33l.45-.64.43-.72.38-.8.3-.89.28-1,.21-1.09L93.2,32l.13-1.32V19.2l1.37.68h12.41l.69-.58,1.26,1.05-.58.34h0l-.07,3.59.07,3.42.19,2.78.3,2.15.36,1.67.41,1.15.4.77.22.24.55-2.46h.24L111,36.79h0l.45.23.17.51-.24.45-.51.17L110.3,38l-.64-.4-.58-.69-.53-1-.47-1.35-.41-1.77-.3-2.29-.19-2.84-.08-3.5.08-3.91H94.78v7.35l-.07,1.58-.12,1.5L94.39,32l-.25,1.27-.34,1.17-.39,1-.41,1-.51.81-.62.66ZM95,37.37l-.45-.23-.17-.49.26-.48.19-.12.17-.17.19-.22.15-.25.15-.3.15-.35.11-.4.11-.43.08-.49v-.53h.22l.19,1v1.41l-.07.43-.12.4-.17.37-.24.36-.26.32Zm8.78.81V37.5l-2.31-.34v-.34h2.87l.1-.06.13-.07.09-.08.21-.2.09-.15h0V33.08h0v-.92H98l-1.39.69V23.48l1.39.69h1.5V24.1l.09-.27.08-.28.11-.28.09-.26.1-.25.09-.26.06-.17h-4v-.45h7.77l.94-1,1.16,1v.45h-4.36l-1.07,1.15-.4.39-.37.3h3.44l.69-.56,1.26,1-.56.45v3.56l-1.39.69v-.69H98V30h6.85l.94-1L107,30v.45H98v1.26h7l.69-.57,1.26,1-.56.32v3.4l-.06.36-.09.3-.15.3-.15.24-.19.21-.21.19-.22.17-.23.15-.24.13-.28.09-.25.06H104Zm-5.7-1.26-.45-.3-.09-.53.15-.45.07-.23V33.78l-.08-.28.17-.08.15.28.19.25.17.28.11.28.13.3.08.3.07.3v1l-.3.45Zm0-10.68h5.27v-1.6H98Zm0,2h5.27v-1.5H98Zm2.9,8.24-.51-.13-.26-.47v-1l-.07-.23v-.24l-.08-.23-.22-.47-.17-.2.13-.14.21.14.26.15.24.18.23.19.19.21.19.26.15.27.15.3.13.3.11.32-.15.52Zm2.48-.81h-.54l-.34-.39v-.55l0-.19-.08-.2-.11-.19-.1-.21-.28-.43-.22-.17.11-.17.26.15.25.08.26.13.24.13.21.15.23.17.2.19.17.22.15.21.15.23v.54Z" transform="translate(-8.85 -4.39)"/><path class="cls-2" d="M116.37,36.07l-.35-.26-.64-1.24.22-.06,2.67-.77v-6h-2.2v-.45h2.2V21.88H115.7v-.47h4.83l1.16-1.13,1.36,1.13v.47h-3.39v5.41h.53l1.13-1.16,1.39,1.16v.45h-3v5.57l2-.62,1.73-.47.07.19-.79.45L120.34,34l-2.22,1-1.65.66Zm11.79,2.35V30.34l-.6,1-.7,1-.77.94-.82.88-.89.83-1,.79-1,.7-1.11.65-.11-.18.94-.81.9-.83.85-.86.77-.87.71-.92.64-.94.58-1,.53-1,.45-1,.23-.62h-4.61v-.45h5V23.14h-2.69l-.2.56-.32.72-.36.69-.38.68-.45.62-.51.58-.18-.11.58-1.39.26-.68.23-.71.22-.72.17-.73.15-.77.1-.77.09-.79.06-.81v-.26l1.35.39.32.26-.4.19v.4l-.17.86-.21.81-.15.53h2.52V18.55l1.39.23.34.22-.34.21v3.48h2.71l1.15-1.15,1.37,1.15v.45h-5.23v4.49h3.37l1.16-1.15,1.36,1.15v.45h-5.61l.66,1.3.43.73.47.7.53.73.58.7.64.73.7.68,1.82,1.65-1.24.92-.81-.81-.75-.79-.68-.84-.62-.81-.52-.83-.47-.84-.38-.81-.32-.85-.22-.81-.08-.75h0v9.65Z" transform="translate(-8.85 -4.39)"/><path class="cls-2" d="M139.7,38.29v-.21l1.67-.49,1.52-.56,1.39-.64,1.21-.69,1-.79.85-.89.67-1,.49-1.07H140.3v-.47h8.35l.18-.73.08-1.32v-.28l1.37.28.34.21-.38.26-.15,1.1-.15.52h6.41l1.15-1.13,1.37,1.13V32h-8.65l.49.55.68.71.71.62.77.57.79.5.87.44.9.37,1,.32,1,.25,2.2.39L158.29,38l-1.19-.3-1.1-.33-1-.45-1-.51-.88-.56-.83-.66-.75-.7-.64-.79-.56-.86-.4-.85h-.11l-.13.42-.7,1.24-.88,1.07-1,.94-1.2.79-1.34.64-1.5.52-1.65.4Zm.11-9.64v-.44h9.08V25.56h-7.35v-.47h7.35V22.46h-8.27V22h10.92l1.58-2.65.47-1h0l.11-.19,1.13.81.17.38h-.47L154,20l-.94,1-.7.67L152,22h4l1.15-1.13L158.53,22v.47h-8.27V25.1h4.83l1.15-1.1,1.37,1.14v.47h-7.35v2.65h6.56L158,27.05l1.39,1.16v.44Zm6.84-6.81-.37-.36-.1-.3-.09-.3-.13-.3-.15-.3-.17-.3-.42-.62-.47-.62-.3-.28.1-.17.75.39.37.23.32.24.32.25.3.28.25.28.49.64.2.34v.54l-.37.36Z" transform="translate(-8.85 -4.39)"/><path class="cls-2" d="M166.29,38.65V28.31l-1.2,1.5-.72.79-.77.75-.15-.11,1.71-2.67,1-1.75.92-1.75.79-1.78.34-.9.09-.12,1.2.66.23.34-.43.06-.7,1.39-1,1.76-.4.59.49.09.36.23-.36.22V38ZM164.05,24.7l-.13-.15,2-2.41.87-1.16.75-1.13.68-1.22,1.14.82.17.38h-.43l-1,1.28-.46.54-1.07,1.07-1.18,1Zm4.85,11.13-.17-.1.55-1.61.26-.81.23-.83.22-.86.17-.87.13-.9.1-.94.09-.94V26.73l1.37.34.32.26-.38.19-.07.58-.17,1-.19,1-.24.92-.25.9-.32.86-.37.83-.38.79-.45.77Zm4.16,2.48V24.4h-3.44V24h3.44V18.89l1.39.24.34.23-.34.19V24h1.92l.94-1,1.16,1v.45h-4V37.61Zm3.76-16.21-.4-.32v-.22l-.06-.21-.09-.24-.19-.45-.25-.44-.3-.52-.22-.19.13-.17.26.17.28.15.25.15.49.32.22.19.4.39.2.21.17.21v.54l-.32.38Zm.73,12.75-.49-.17-.24-.47V32.67l-.09-.75-.08-.74-.15-.75-.15-.71L176.1,29l-.43-1.43-.24-.71.18-.11.44.62.41.69.34.68.32.71.26.74.26.75.19.77.15.79.15.81.08.81-.19.5Zm2.29,3.68v-.69l-1.61-.34v-.34h2V25.8h-2.76v-.44h4.23l.94-1,1.13,1v.44H181.6V37.37l-.09.28-.15.28-.19.21-.23.2-.26.15-.28.08h-.28Zm-1.61-17.67v-.47h2.84l.94-1,1.16,1v.47Z" transform="translate(-8.85 -4.39)"/><path class="cls-2" d="M197.7,29.81l-.51-.09-.43-.25-.29-.35-.18-.4-.06-.41.06-.42.18-.41.29-.34.43-.24.51-.08.52.08.43.24.29.34.17.41v.83l-.17.4-.29.35-.43.25Z" transform="translate(-8.85 -4.39)"/><path class="cls-2" d="M214.72,33.57l-.38-.34-.07-.22-.06-.21-.09-.24-.08-.19-.24-.45-.32-.42-.17-.22-1.28.84-.77.4-.13-.17,1.24-1.17L213.5,30l1.05-1.26.47-.66.87-1.37.13-.26V24.06l-.55.81-.49.62-.5.6-.55.54-.58.51-.57.45-.65.36-.66.32-.1-.17,1-1,.92-1.07.43-.58.4-.6.75-1.3.32-.68.11-.2h-3.53V22.2H216V20.51l-1.45.3-.81.13-.88.13-.85.11V21l1.63-.62,4.59-1.56,1.33-.49h.1l.07.17,1.06.92v.34l-.49-.21-.28.08-2.54.62.27.2-.34.21v1.62h2l1.16-1.15L222,22.22v.47h-4.59v.75l.56.17.47.17.87.47.43.28.81.64.39.34.34.39.15.49-.26.47-.51.13-.45-.26-.53-.72-.6-.69-.32-.32-.71-.62-.64-.51v2.61l-.13.06.2.15.19.36h-.43l-.26.37-.15.21.62.15L218,28l.54.21.51.26.49.3.47.32.45.39.43.38.38.43.13.51-.26.45-.51.13-.45-.26-.3-.41-.3-.38-.32-.36-.75-.71-.85-.62-.45-.3-.49-.27L216.6,28l-.66.85L214.76,30l-.64.58-.55.47.44.17.26.15.26.17.25.17.43.41.19.23.17.26v.51l-.35.41Zm.85,4.85v-.69L214,37.39v-.34h2V34.59l-.57.47-1.26.92-1.22.79-.37.22-.06.47-.36-.2-.81-1.13.21-.1,3.1-1.27,1.34-.51V29l1.39.23.34.24-.34.19v4.12l.11-.1,1.11-1.46.55-.79.09-.15h0l.13-.15,1,.94.13.39-.49-.07-.41.32-.57.43-.65.43-.34.19-.36.17h-.06l.53.24.41.19.38.24.36.23.69.56.32.29.3.3.12.52-.25.45-.51.12-.45-.25-.41-.62-.47-.6-.55-.6-.62-.6h-.07v2.48l-.06.3-.09.28-.15.25-.17.24-.24.19-.27.15-.26.08h-.3Zm6.33,0V28.21l1.39.68h2V18.66l1.37.23.34.24-.34.21v4h2.67l1.16-1.16,1.39,1.16v.45h-5.22v5.06h2.67l.71-.58,1.26,1-.58.47V37l-1.39.68V36.35h-6v1.38Zm1.39-2.52h6V29.34h-6Z" transform="translate(-8.85 -4.39)"/><path class="cls-2" d="M236,36.47V36h9.19V26.37H237.5V25.9h7.69V18.66l1.37.23.34.24-.34.21V25.9h5.17l1.15-1.15,1.37,1.15v.47h-7.69V36h6.66l1.16-1.15L255.71,36v.47Z" transform="translate(-8.85 -4.39)"/><path class="cls-2" d="M270.37,38.31v-.7l-2.31-.35v-.34h2.65V30.83l-1.5.92-1.62.92-1.67.86-1.75.81-1.79.75-1.86.66-.09-.19L264,33.78l1.65-.92,1.6-1,1.54-1,2-1.43V23.72H260.71v-.47h10.11V18.66l1.39.23.34.24-.34.21v3.91h4.59l1.13-1.13,1.39,1.13v.47h-7.11v4.74l.87-.7,1.33-1.13,1.24-1.16h0l.9,1,.08.4-.42-.11-1,.86-1.41,1.09-1.45,1.07-.19.13V37l-.08.26-.15.28-.2.23-.21.17-.28.15-.27.09-.28.06Z" transform="translate(-8.85 -4.39)"/><path class="cls-2" d="M291.32,27.82h-.24l-.26-.06-.23-.11-.21-.15-.18-.19-.14-.24-.11-.23v-.28l-.05-.28v-.75h-2.24l.53.28.26.32-.49.11-.26.34-.32.32-.34.3-.38.28-.43.21-.47.22-.49.17-1.11.25-.07-.19.51-.26.84-.55.36-.3.3-.28.24-.28.21-.29.17-.28.11-.28v-.09H284V25h3.82V24h-3v-.45h3V22.22l1.37.24.34.23-.34.2v.72H291l.94-1,1.15,1v.45h-3.93v1h3.89l.51-.68.58.58v-.32h2.64V22.39l-.29.15v-2h-5.05v1.35l-1.38.68v-2H284V20h6.09V18.16l1.38.24.35.23-.35.2V20h5V18.16l1.38.24.35.23-.35.2V20h3.55l1.16-1.13L304,20v.47h-6.09v1.35l-.91.45,1.21.19.35.24-.35.21v1.67h1.73l.69-.56,1.26,1-.58.45v5h0l.07.08.08.05.13.06h1.69l.34-.57h.24l-.2.59.2.13L304,31l-.17.25-.24.15H301l-.25-.11-.22-.15-.19-.19-.17-.23-.11-.26-.08-.28-.05-.28v-5h-1.77l-.13.83-.28,1-.25.56.38.19.47.28.43.3.36.32.35.34.1.54-.28.44-.49.11-.47-.28-.17-.27-.23-.3-.3-.3-.34-.3-.28-.19-.19.32-.64.72-.73.64-.83.54-1,.45-1,.32-1.13.23-.07-.21,1.05-.43.9-.49.81-.51.66-.56.58-.62.47-.68.15-.3-.68-.39-1.29-.59.07-.2.72.11.69.13.64.17h.15l.17-.49.17-.88.06-.59h-2.52v.42H291l.27.23L291,26v.67l.06.12v.07l.15.11h1.37l.34-.58h.24L293,27l.22.15.17.24-.17.23-.24.17h-.83l.94.86v.47h-4v1L291,30l1.22-.06h1.28v.19l-1.26.28-1.17.25-2.14.39-1.82.3-1.51.25-.71.11-.21.38-.26-.32L284,30.43h2.12l1.66-.1h.09V29.15h-3.23v-.47h3.23V26.92l1.15.24.28.21-.28.22v1.09h2l.79-.86Zm-5.13,10.71-.24-.35-.3-1.36h3.68L291,35l.55-.62h-7.28v-.47h17.22l.94-1,1.15,1v.47H293.47l-.62.54-1.13.85-.85.58-.45.28-.15.06h1.07l2.84-.09,1.43-.06h3.5l-2-1.32.08-.17.6.15.58.17.55.17,1,.45.89.49.41.26.77.57.19.49-.19.49-.49.2-.49-.2-.56-.59-.3-.3-.68-.56-.92.15-2.91.41-2.86.32L290,38l-1.39.13-2.22.15Zm.77-6v-.45h12.39l.7-.81.92.81v.45Z" transform="translate(-8.85 -4.39)"/><path class="cls-2" d="M316.3,28l.08-.11h0l.59-.5,1.26,1-.57.34-.41.19-.43.5-.27.25-.3.26-.64.45-.32.17-.37.23v1.65l3.78-.86,1.39-.3.07.2-2.61,1-2.39.81-.24.07v3.46h-1.39v-3l-3.5,1-.38.1-.17.41-.3-.28v-.19h0l-.1-.51v-.13L309,34v-.26h0l2.75-.54,1.88-.4V30.15l1.31.21.57-.72.2-.28.34-.6.15-.28v-.06h-2.76l-1.15,1.11-1.39,1.15-1.45,1.07-1.54,1-.13-.17,1.39-1.18,1.33-1.2,1.21-1.2.51-.56h-2.84V28h3.27l.25-.28,1.11-1.3.3-.38h-5.94v-.45h4.49V22.22h-3.18v-.44h3.18V18.44l1.39.22.34.23-.34.21v2.68h.51l1.15-1.16,1.31,1.09.62-1.11.77-1.56.08-.13,1.16.73.21.36h-.43L319,21.24l-1,1.54-1,1.47-1,1.31h1.35l1.15-1.16,1,.86.28-.62.69-1.95.29-1,.52-2.14.21-1.13v-.21l1.31.49.3.3-.41.12L322.18,21l-.75,2.1-.34.79h4.31l1.16-1.14L328,23.83v.47h-2.14l-.32,2-.49,2-.62,1.85-.75,1.71-.53.92.44.62.86.94.94.83,1,.75,1.74.92-1.31,1-1.22-.77-1.11-.88-1-1-.86-1.11-.17-.28-.72,1L320.56,36l-1.28,1-1.43.83-1.54.62-.06-.19,1.39-.81,1.28-.94,1.13-1.07,1-1.19.86-1.29-.69-1.39-.51-1.41-.43-1.53L320,27.05l-.09-1-.45.68-.59.84-.65.77-.17-.13.88-1.77.21-.47h-3.56l-.86,1-.92,1Zm-7.37,5.73.28,1.34-.52-1.3Zm6,3.12v.57l-.11.28-.13.26-.19.23-.23.17-.26.15-.28.11h-.57V38l-1.84-.36v-.35h2.24V37Zm2-14.6h-2.67v3.34h.4l.43-.56,1-1.41Zm7.54,2.08H320.9l-.32.7-.36.66.3,1.31.45,1.54L321.5,30l.62,1.3.39.66.21-.41.62-1.64.51-1.79.39-1.95Z" transform="translate(-8.85 -4.39)"/><path class="cls-2" d="M349,31.09l-.4-.32-.24-.43-.27-.42-.67-.9h0l-2.29.4-2.73.39-1.32.17-2.5.3-3,.32-.21.36L335,30.6l-.3-1.37h3.21L340.17,25h-4.74v-.45h10.81l1.13-1.15,1.22,1,.77-1.32.51-1,.09-.18H334.4v.33l0,.51-.08.51-.13.49-.19.43-.24.41-.3.34-.34.32-.53.06-.43-.3-.06-.53.29-.41.24-.13.21-.14.22-.22.21-.28.19-.32.15-.4.15-.45.15-.51L334,21l.06-.64h.22l.08.64v.4h7V18.27l1.37.24.34.23-.34.19v2.52h7.41v-.08h0l.55-.47,1.26,1-.57.35-.49.19-.77.79-.94.85-.37.3-.19.17V25h-7l-1,1.35-2,2.39-.34.38,1.18-.06,5.38-.28,1.43-.06h.64l-1-1-1.58-1.49.11-.18.68.32.66.39.6.36,1.09.81.92.86.79.9.34.44.07.52-.3.42ZM332.44,37.5v-.45h9V33.59h-6.9v-.45h6.9V29.92l1.37.23.34.24-.34.19v2.56h4.38l1.1-1.14,1.39,1.15v.45h-6.9v3.46h6.43l1.15-1.15,1.39,1.15v.45Z" transform="translate(-8.85 -4.39)"/></svg>