<svg id="圖層_1" data-name="圖層 1" xmlns="http://www.w3.org/2000/svg" viewBox="0 0 370 370"><defs><style>.cls-1{fill:#fff;}.cls-2{fill:#285964;}</style></defs><title>qr</title><rect class="cls-1" width="370" height="370"/><g id="quickmark"><rect class="cls-2" x="40" y="40" width="10" height="10"/><rect class="cls-2" x="50" y="40" width="10" height="10"/><rect class="cls-2" x="60" y="40" width="10" height="10"/><rect class="cls-2" x="70" y="40" width="10" height="10"/><rect class="cls-2" x="80" y="40" width="10" height="10"/><rect class="cls-2" x="90" y="40" width="10" height="10"/><rect class="cls-2" x="100" y="40" width="10" height="10"/><rect class="cls-2" x="120" y="40" width="10" height="10"/><rect class="cls-2" x="130" y="40" width="10" height="10"/><rect class="cls-2" x="170" y="40" width="10" height="10"/><rect class="cls-2" x="210" y="40" width="10" height="10"/><rect class="cls-2" x="220" y="40" width="10" height="10"/><rect class="cls-2" x="230" y="40" width="10" height="10"/><rect class="cls-2" x="240" y="40" width="10" height="10"/><rect class="cls-2" x="260" y="40" width="10" height="10"/><rect class="cls-2" x="270" y="40" width="10" height="10"/><rect class="cls-2" x="280" y="40" width="10" height="10"/><rect class="cls-2" x="290" y="40" width="10" height="10"/><rect class="cls-2" x="300" y="40" width="10" height="10"/><rect class="cls-2" x="310" y="40" width="10" height="10"/><rect class="cls-2" x="320" y="40" width="10" height="10"/><rect class="cls-2" x="40" y="50" width="10" height="10"/><rect class="cls-2" x="100" y="50" width="10" height="10"/><rect class="cls-2" x="120" y="50" width="10" height="10"/><rect class="cls-2" x="140" y="50" width="10" height="10"/><rect class="cls-2" x="150" y="50" width="10" height="10"/><rect class="cls-2" x="160" y="50" width="10" height="10"/><rect class="cls-2" x="170" y="50" width="10" height="10"/><rect class="cls-2" x="220" y="50" width="10" height="10"/><rect class="cls-2" x="260" y="50" width="10" height="10"/><rect class="cls-2" x="320" y="50" width="10" height="10"/><rect class="cls-2" x="40" y="60" width="10" height="10"/><rect class="cls-2" x="60" y="60" width="10" height="10"/><rect class="cls-2" x="70" y="60" width="10" height="10"/><rect class="cls-2" x="80" y="60" width="10" height="10"/><rect class="cls-2" x="100" y="60" width="10" height="10"/><rect class="cls-2" x="130" y="60" width="10" height="10"/><rect class="cls-2" x="140" y="60" width="10" height="10"/><rect class="cls-2" x="170" y="60" width="10" height="10"/><rect class="cls-2" x="180" y="60" width="10" height="10"/><rect class="cls-2" x="220" y="60" width="10" height="10"/><rect class="cls-2" x="260" y="60" width="10" height="10"/><rect class="cls-2" x="280" y="60" width="10" height="10"/><rect class="cls-2" x="290" y="60" width="10" height="10"/><rect class="cls-2" x="300" y="60" width="10" height="10"/><rect class="cls-2" x="320" y="60" width="10" height="10"/><rect class="cls-2" x="40" y="70" width="10" height="10"/><rect class="cls-2" x="60" y="70" width="10" height="10"/><rect class="cls-2" x="70" y="70" width="10" height="10"/><rect class="cls-2" x="80" y="70" width="10" height="10"/><rect class="cls-2" x="100" y="70" width="10" height="10"/><rect class="cls-2" x="120" y="70" width="10" height="10"/><rect class="cls-2" x="150" y="70" width="10" height="10"/><rect class="cls-2" x="190" y="70" width="10" height="10"/><rect class="cls-2" x="200" y="70" width="10" height="10"/><rect class="cls-2" x="210" y="70" width="10" height="10"/><rect class="cls-2" x="260" y="70" width="10" height="10"/><rect class="cls-2" x="280" y="70" width="10" height="10"/><rect class="cls-2" x="290" y="70" width="10" height="10"/><rect class="cls-2" x="300" y="70" width="10" height="10"/><rect class="cls-2" x="320" y="70" width="10" height="10"/><rect class="cls-2" x="40" y="80" width="10" height="10"/><rect class="cls-2" x="60" y="80" width="10" height="10"/><rect class="cls-2" x="70" y="80" width="10" height="10"/><rect class="cls-2" x="80" y="80" width="10" height="10"/><rect class="cls-2" x="100" y="80" width="10" height="10"/><rect class="cls-2" x="140" y="80" width="10" height="10"/><rect class="cls-2" x="150" y="80" width="10" height="10"/><rect class="cls-2" x="170" y="80" width="10" height="10"/><rect class="cls-2" x="180" y="80" width="10" height="10"/><rect class="cls-2" x="190" y="80" width="10" height="10"/><rect class="cls-2" x="230" y="80" width="10" height="10"/><rect class="cls-2" x="260" y="80" width="10" height="10"/><rect class="cls-2" x="280" y="80" width="10" height="10"/><rect class="cls-2" x="290" y="80" width="10" height="10"/><rect class="cls-2" x="300" y="80" width="10" height="10"/><rect class="cls-2" x="320" y="80" width="10" height="10"/><rect class="cls-2" x="40" y="90" width="10" height="10"/><rect class="cls-2" x="100" y="90" width="10" height="10"/><rect class="cls-2" x="150" y="90" width="10" height="10"/><rect class="cls-2" x="160" y="90" width="10" height="10"/><rect class="cls-2" x="180" y="90" width="10" height="10"/><rect class="cls-2" x="200" y="90" width="10" height="10"/><rect class="cls-2" x="220" y="90" width="10" height="10"/><rect class="cls-2" x="230" y="90" width="10" height="10"/><rect class="cls-2" x="260" y="90" width="10" height="10"/><rect class="cls-2" x="320" y="90" width="10" height="10"/><rect class="cls-2" x="40" y="100" width="10" height="10"/><rect class="cls-2" x="50" y="100" width="10" height="10"/><rect class="cls-2" x="60" y="100" width="10" height="10"/><rect class="cls-2" x="70" y="100" width="10" height="10"/><rect class="cls-2" x="80" y="100" width="10" height="10"/><rect class="cls-2" x="90" y="100" width="10" height="10"/><rect class="cls-2" x="100" y="100" width="10" height="10"/><rect class="cls-2" x="120" y="100" width="10" height="10"/><rect class="cls-2" x="140" y="100" width="10" height="10"/><rect class="cls-2" x="160" y="100" width="10" height="10"/><rect class="cls-2" x="180" y="100" width="10" height="10"/><rect class="cls-2" x="200" y="100" width="10" height="10"/><rect class="cls-2" x="220" y="100" width="10" height="10"/><rect class="cls-2" x="240" y="100" width="10" height="10"/><rect class="cls-2" x="260" y="100" width="10" height="10"/><rect class="cls-2" x="270" y="100" width="10" height="10"/><rect class="cls-2" x="280" y="100" width="10" height="10"/><rect class="cls-2" x="290" y="100" width="10" height="10"/><rect class="cls-2" x="300" y="100" width="10" height="10"/><rect class="cls-2" x="310" y="100" width="10" height="10"/><rect class="cls-2" x="320" y="100" width="10" height="10"/><rect class="cls-2" x="120" y="110" width="10" height="10"/><rect class="cls-2" x="140" y="110" width="10" height="10"/><rect class="cls-2" x="150" y="110" width="10" height="10"/><rect class="cls-2" x="170" y="110" width="10" height="10"/><rect class="cls-2" x="180" y="110" width="10" height="10"/><rect class="cls-2" x="210" y="110" width="10" height="10"/><rect class="cls-2" x="220" y="110" width="10" height="10"/><rect class="cls-2" x="230" y="110" width="10" height="10"/><rect class="cls-2" x="40" y="120" width="10" height="10"/><rect class="cls-2" x="60" y="120" width="10" height="10"/><rect class="cls-2" x="70" y="120" width="10" height="10"/><rect class="cls-2" x="90" y="120" width="10" height="10"/><rect class="cls-2" x="100" y="120" width="10" height="10"/><rect class="cls-2" x="110" y="120" width="10" height="10"/><rect class="cls-2" x="160" y="120" width="10" height="10"/><rect class="cls-2" x="170" y="120" width="10" height="10"/><rect class="cls-2" x="180" y="120" width="10" height="10"/><rect class="cls-2" x="190" y="120" width="10" height="10"/><rect class="cls-2" x="210" y="120" width="10" height="10"/><rect class="cls-2" x="260" y="120" width="10" height="10"/><rect class="cls-2" x="290" y="120" width="10" height="10"/><rect class="cls-2" x="310" y="120" width="10" height="10"/><rect class="cls-2" x="320" y="120" width="10" height="10"/><rect class="cls-2" x="40" y="130" width="10" height="10"/><rect class="cls-2" x="80" y="130" width="10" height="10"/><rect class="cls-2" x="90" y="130" width="10" height="10"/><rect class="cls-2" x="140" y="130" width="10" height="10"/><rect class="cls-2" x="150" y="130" width="10" height="10"/><rect class="cls-2" x="210" y="130" width="10" height="10"/><rect class="cls-2" x="220" y="130" width="10" height="10"/><rect class="cls-2" x="230" y="130" width="10" height="10"/><rect class="cls-2" x="250" y="130" width="10" height="10"/><rect class="cls-2" x="260" y="130" width="10" height="10"/><rect class="cls-2" x="270" y="130" width="10" height="10"/><rect class="cls-2" x="280" y="130" width="10" height="10"/><rect class="cls-2" x="320" y="130" width="10" height="10"/><rect class="cls-2" x="70" y="140" width="10" height="10"/><rect class="cls-2" x="100" y="140" width="10" height="10"/><rect class="cls-2" x="110" y="140" width="10" height="10"/><rect class="cls-2" x="160" y="140" width="10" height="10"/><rect class="cls-2" x="180" y="140" width="10" height="10"/><rect class="cls-2" x="220" y="140" width="10" height="10"/><rect class="cls-2" x="250" y="140" width="10" height="10"/><rect class="cls-2" x="270" y="140" width="10" height="10"/><rect class="cls-2" x="280" y="140" width="10" height="10"/><rect class="cls-2" x="300" y="140" width="10" height="10"/><rect class="cls-2" x="310" y="140" width="10" height="10"/><rect class="cls-2" x="50" y="150" width="10" height="10"/><rect class="cls-2" x="60" y="150" width="10" height="10"/><rect class="cls-2" x="70" y="150" width="10" height="10"/><rect class="cls-2" x="80" y="150" width="10" height="10"/><rect class="cls-2" x="110" y="150" width="10" height="10"/><rect class="cls-2" x="120" y="150" width="10" height="10"/><rect class="cls-2" x="140" y="150" width="10" height="10"/><rect class="cls-2" x="170" y="150" width="10" height="10"/><rect class="cls-2" x="180" y="150" width="10" height="10"/><rect class="cls-2" x="190" y="150" width="10" height="10"/><rect class="cls-2" x="220" y="150" width="10" height="10"/><rect class="cls-2" x="270" y="150" width="10" height="10"/><rect class="cls-2" x="280" y="150" width="10" height="10"/><rect class="cls-2" x="320" y="150" width="10" height="10"/><rect class="cls-2" x="40" y="160" width="10" height="10"/><rect class="cls-2" x="70" y="160" width="10" height="10"/><rect class="cls-2" x="100" y="160" width="10" height="10"/><rect class="cls-2" x="190" y="160" width="10" height="10"/><rect class="cls-2" x="200" y="160" width="10" height="10"/><rect class="cls-2" x="210" y="160" width="10" height="10"/><rect class="cls-2" x="230" y="160" width="10" height="10"/><rect class="cls-2" x="290" y="160" width="10" height="10"/><rect class="cls-2" x="300" y="160" width="10" height="10"/><rect class="cls-2" x="50" y="170" width="10" height="10"/><rect class="cls-2" x="70" y="170" width="10" height="10"/><rect class="cls-2" x="80" y="170" width="10" height="10"/><rect class="cls-2" x="90" y="170" width="10" height="10"/><rect class="cls-2" x="130" y="170" width="10" height="10"/><rect class="cls-2" x="140" y="170" width="10" height="10"/><rect class="cls-2" x="170" y="170" width="10" height="10"/><rect class="cls-2" x="190" y="170" width="10" height="10"/><rect class="cls-2" x="210" y="170" width="10" height="10"/><rect class="cls-2" x="230" y="170" width="10" height="10"/><rect class="cls-2" x="260" y="170" width="10" height="10"/><rect class="cls-2" x="270" y="170" width="10" height="10"/><rect class="cls-2" x="300" y="170" width="10" height="10"/><rect class="cls-2" x="310" y="170" width="10" height="10"/><rect class="cls-2" x="320" y="170" width="10" height="10"/><rect class="cls-2" x="80" y="180" width="10" height="10"/><rect class="cls-2" x="100" y="180" width="10" height="10"/><rect class="cls-2" x="130" y="180" width="10" height="10"/><rect class="cls-2" x="180" y="180" width="10" height="10"/><rect class="cls-2" x="200" y="180" width="10" height="10"/><rect class="cls-2" x="230" y="180" width="10" height="10"/><rect class="cls-2" x="240" y="180" width="10" height="10"/><rect class="cls-2" x="260" y="180" width="10" height="10"/><rect class="cls-2" x="270" y="180" width="10" height="10"/><rect class="cls-2" x="280" y="180" width="10" height="10"/><rect class="cls-2" x="300" y="180" width="10" height="10"/><rect class="cls-2" x="310" y="180" width="10" height="10"/><rect class="cls-2" x="320" y="180" width="10" height="10"/><rect class="cls-2" x="40" y="190" width="10" height="10"/><rect class="cls-2" x="50" y="190" width="10" height="10"/><rect class="cls-2" x="110" y="190" width="10" height="10"/><rect class="cls-2" x="140" y="190" width="10" height="10"/><rect class="cls-2" x="150" y="190" width="10" height="10"/><rect class="cls-2" x="160" y="190" width="10" height="10"/><rect class="cls-2" x="170" y="190" width="10" height="10"/><rect class="cls-2" x="230" y="190" width="10" height="10"/><rect class="cls-2" x="240" y="190" width="10" height="10"/><rect class="cls-2" x="270" y="190" width="10" height="10"/><rect class="cls-2" x="280" y="190" width="10" height="10"/><rect class="cls-2" x="310" y="190" width="10" height="10"/><rect class="cls-2" x="40" y="200" width="10" height="10"/><rect class="cls-2" x="50" y="200" width="10" height="10"/><rect class="cls-2" x="70" y="200" width="10" height="10"/><rect class="cls-2" x="100" y="200" width="10" height="10"/><rect class="cls-2" x="140" y="200" width="10" height="10"/><rect class="cls-2" x="160" y="200" width="10" height="10"/><rect class="cls-2" x="200" y="200" width="10" height="10"/><rect class="cls-2" x="220" y="200" width="10" height="10"/><rect class="cls-2" x="230" y="200" width="10" height="10"/><rect class="cls-2" x="240" y="200" width="10" height="10"/><rect class="cls-2" x="250" y="200" width="10" height="10"/><rect class="cls-2" x="280" y="200" width="10" height="10"/><rect class="cls-2" x="290" y="200" width="10" height="10"/><rect class="cls-2" x="310" y="200" width="10" height="10"/><rect class="cls-2" x="70" y="210" width="10" height="10"/><rect class="cls-2" x="80" y="210" width="10" height="10"/><rect class="cls-2" x="110" y="210" width="10" height="10"/><rect class="cls-2" x="120" y="210" width="10" height="10"/><rect class="cls-2" x="130" y="210" width="10" height="10"/><rect class="cls-2" x="140" y="210" width="10" height="10"/><rect class="cls-2" x="150" y="210" width="10" height="10"/><rect class="cls-2" x="170" y="210" width="10" height="10"/><rect class="cls-2" x="190" y="210" width="10" height="10"/><rect class="cls-2" x="200" y="210" width="10" height="10"/><rect class="cls-2" x="220" y="210" width="10" height="10"/><rect class="cls-2" x="240" y="210" width="10" height="10"/><rect class="cls-2" x="270" y="210" width="10" height="10"/><rect class="cls-2" x="290" y="210" width="10" height="10"/><rect class="cls-2" x="300" y="210" width="10" height="10"/><rect class="cls-2" x="310" y="210" width="10" height="10"/><rect class="cls-2" x="50" y="220" width="10" height="10"/><rect class="cls-2" x="70" y="220" width="10" height="10"/><rect class="cls-2" x="80" y="220" width="10" height="10"/><rect class="cls-2" x="90" y="220" width="10" height="10"/><rect class="cls-2" x="100" y="220" width="10" height="10"/><rect class="cls-2" x="110" y="220" width="10" height="10"/><rect class="cls-2" x="120" y="220" width="10" height="10"/><rect class="cls-2" x="130" y="220" width="10" height="10"/><rect class="cls-2" x="160" y="220" width="10" height="10"/><rect class="cls-2" x="190" y="220" width="10" height="10"/><rect class="cls-2" x="210" y="220" width="10" height="10"/><rect class="cls-2" x="220" y="220" width="10" height="10"/><rect class="cls-2" x="240" y="220" width="10" height="10"/><rect class="cls-2" x="250" y="220" width="10" height="10"/><rect class="cls-2" x="270" y="220" width="10" height="10"/><rect class="cls-2" x="300" y="220" width="10" height="10"/><rect class="cls-2" x="40" y="230" width="10" height="10"/><rect class="cls-2" x="50" y="230" width="10" height="10"/><rect class="cls-2" x="60" y="230" width="10" height="10"/><rect class="cls-2" x="70" y="230" width="10" height="10"/><rect class="cls-2" x="90" y="230" width="10" height="10"/><rect class="cls-2" x="190" y="230" width="10" height="10"/><rect class="cls-2" x="210" y="230" width="10" height="10"/><rect class="cls-2" x="230" y="230" width="10" height="10"/><rect class="cls-2" x="250" y="230" width="10" height="10"/><rect class="cls-2" x="260" y="230" width="10" height="10"/><rect class="cls-2" x="300" y="230" width="10" height="10"/><rect class="cls-2" x="40" y="240" width="10" height="10"/><rect class="cls-2" x="90" y="240" width="10" height="10"/><rect class="cls-2" x="100" y="240" width="10" height="10"/><rect class="cls-2" x="120" y="240" width="10" height="10"/><rect class="cls-2" x="140" y="240" width="10" height="10"/><rect class="cls-2" x="170" y="240" width="10" height="10"/><rect class="cls-2" x="210" y="240" width="10" height="10"/><rect class="cls-2" x="220" y="240" width="10" height="10"/><rect class="cls-2" x="240" y="240" width="10" height="10"/><rect class="cls-2" x="250" y="240" width="10" height="10"/><rect class="cls-2" x="260" y="240" width="10" height="10"/><rect class="cls-2" x="270" y="240" width="10" height="10"/><rect class="cls-2" x="280" y="240" width="10" height="10"/><rect class="cls-2" x="290" y="240" width="10" height="10"/><rect class="cls-2" x="300" y="240" width="10" height="10"/><rect class="cls-2" x="120" y="250" width="10" height="10"/><rect class="cls-2" x="140" y="250" width="10" height="10"/><rect class="cls-2" x="170" y="250" width="10" height="10"/><rect class="cls-2" x="180" y="250" width="10" height="10"/><rect class="cls-2" x="240" y="250" width="10" height="10"/><rect class="cls-2" x="280" y="250" width="10" height="10"/><rect class="cls-2" x="290" y="250" width="10" height="10"/><rect class="cls-2" x="300" y="250" width="10" height="10"/><rect class="cls-2" x="310" y="250" width="10" height="10"/><rect class="cls-2" x="320" y="250" width="10" height="10"/><rect class="cls-2" x="40" y="260" width="10" height="10"/><rect class="cls-2" x="50" y="260" width="10" height="10"/><rect class="cls-2" x="60" y="260" width="10" height="10"/><rect class="cls-2" x="70" y="260" width="10" height="10"/><rect class="cls-2" x="80" y="260" width="10" height="10"/><rect class="cls-2" x="90" y="260" width="10" height="10"/><rect class="cls-2" x="100" y="260" width="10" height="10"/><rect class="cls-2" x="120" y="260" width="10" height="10"/><rect class="cls-2" x="130" y="260" width="10" height="10"/><rect class="cls-2" x="160" y="260" width="10" height="10"/><rect class="cls-2" x="170" y="260" width="10" height="10"/><rect class="cls-2" x="200" y="260" width="10" height="10"/><rect class="cls-2" x="210" y="260" width="10" height="10"/><rect class="cls-2" x="220" y="260" width="10" height="10"/><rect class="cls-2" x="230" y="260" width="10" height="10"/><rect class="cls-2" x="240" y="260" width="10" height="10"/><rect class="cls-2" x="260" y="260" width="10" height="10"/><rect class="cls-2" x="280" y="260" width="10" height="10"/><rect class="cls-2" x="290" y="260" width="10" height="10"/><rect class="cls-2" x="310" y="260" width="10" height="10"/><rect class="cls-2" x="40" y="270" width="10" height="10"/><rect class="cls-2" x="100" y="270" width="10" height="10"/><rect class="cls-2" x="120" y="270" width="10" height="10"/><rect class="cls-2" x="130" y="270" width="10" height="10"/><rect class="cls-2" x="140" y="270" width="10" height="10"/><rect class="cls-2" x="160" y="270" width="10" height="10"/><rect class="cls-2" x="190" y="270" width="10" height="10"/><rect class="cls-2" x="200" y="270" width="10" height="10"/><rect class="cls-2" x="240" y="270" width="10" height="10"/><rect class="cls-2" x="280" y="270" width="10" height="10"/><rect class="cls-2" x="290" y="270" width="10" height="10"/><rect class="cls-2" x="310" y="270" width="10" height="10"/><rect class="cls-2" x="320" y="270" width="10" height="10"/><rect class="cls-2" x="40" y="280" width="10" height="10"/><rect class="cls-2" x="60" y="280" width="10" height="10"/><rect class="cls-2" x="70" y="280" width="10" height="10"/><rect class="cls-2" x="80" y="280" width="10" height="10"/><rect class="cls-2" x="100" y="280" width="10" height="10"/><rect class="cls-2" x="140" y="280" width="10" height="10"/><rect class="cls-2" x="150" y="280" width="10" height="10"/><rect class="cls-2" x="180" y="280" width="10" height="10"/><rect class="cls-2" x="190" y="280" width="10" height="10"/><rect class="cls-2" x="200" y="280" width="10" height="10"/><rect class="cls-2" x="210" y="280" width="10" height="10"/><rect class="cls-2" x="220" y="280" width="10" height="10"/><rect class="cls-2" x="240" y="280" width="10" height="10"/><rect class="cls-2" x="250" y="280" width="10" height="10"/><rect class="cls-2" x="260" y="280" width="10" height="10"/><rect class="cls-2" x="270" y="280" width="10" height="10"/><rect class="cls-2" x="280" y="280" width="10" height="10"/><rect class="cls-2" x="300" y="280" width="10" height="10"/><rect class="cls-2" x="40" y="290" width="10" height="10"/><rect class="cls-2" x="60" y="290" width="10" height="10"/><rect class="cls-2" x="70" y="290" width="10" height="10"/><rect class="cls-2" x="80" y="290" width="10" height="10"/><rect class="cls-2" x="100" y="290" width="10" height="10"/><rect class="cls-2" x="120" y="290" width="10" height="10"/><rect class="cls-2" x="140" y="290" width="10" height="10"/><rect class="cls-2" x="180" y="290" width="10" height="10"/><rect class="cls-2" x="190" y="290" width="10" height="10"/><rect class="cls-2" x="210" y="290" width="10" height="10"/><rect class="cls-2" x="220" y="290" width="10" height="10"/><rect class="cls-2" x="250" y="290" width="10" height="10"/><rect class="cls-2" x="280" y="290" width="10" height="10"/><rect class="cls-2" x="290" y="290" width="10" height="10"/><rect class="cls-2" x="320" y="290" width="10" height="10"/><rect class="cls-2" x="40" y="300" width="10" height="10"/><rect class="cls-2" x="60" y="300" width="10" height="10"/><rect class="cls-2" x="70" y="300" width="10" height="10"/><rect class="cls-2" x="80" y="300" width="10" height="10"/><rect class="cls-2" x="100" y="300" width="10" height="10"/><rect class="cls-2" x="120" y="300" width="10" height="10"/><rect class="cls-2" x="130" y="300" width="10" height="10"/><rect class="cls-2" x="170" y="300" width="10" height="10"/><rect class="cls-2" x="180" y="300" width="10" height="10"/><rect class="cls-2" x="200" y="300" width="10" height="10"/><rect class="cls-2" x="210" y="300" width="10" height="10"/><rect class="cls-2" x="230" y="300" width="10" height="10"/><rect class="cls-2" x="270" y="300" width="10" height="10"/><rect class="cls-2" x="300" y="300" width="10" height="10"/><rect class="cls-2" x="320" y="300" width="10" height="10"/><rect class="cls-2" x="40" y="310" width="10" height="10"/><rect class="cls-2" x="100" y="310" width="10" height="10"/><rect class="cls-2" x="130" y="310" width="10" height="10"/><rect class="cls-2" x="140" y="310" width="10" height="10"/><rect class="cls-2" x="160" y="310" width="10" height="10"/><rect class="cls-2" x="170" y="310" width="10" height="10"/><rect class="cls-2" x="180" y="310" width="10" height="10"/><rect class="cls-2" x="190" y="310" width="10" height="10"/><rect class="cls-2" x="200" y="310" width="10" height="10"/><rect class="cls-2" x="220" y="310" width="10" height="10"/><rect class="cls-2" x="240" y="310" width="10" height="10"/><rect class="cls-2" x="270" y="310" width="10" height="10"/><rect class="cls-2" x="290" y="310" width="10" height="10"/><rect class="cls-2" x="310" y="310" width="10" height="10"/><rect class="cls-2" x="40" y="320" width="10" height="10"/><rect class="cls-2" x="50" y="320" width="10" height="10"/><rect class="cls-2" x="60" y="320" width="10" height="10"/><rect class="cls-2" x="70" y="320" width="10" height="10"/><rect class="cls-2" x="80" y="320" width="10" height="10"/><rect class="cls-2" x="90" y="320" width="10" height="10"/><rect class="cls-2" x="100" y="320" width="10" height="10"/><rect class="cls-2" x="120" y="320" width="10" height="10"/><rect class="cls-2" x="150" y="320" width="10" height="10"/><rect class="cls-2" x="200" y="320" width="10" height="10"/><rect class="cls-2" x="230" y="320" width="10" height="10"/><rect class="cls-2" x="240" y="320" width="10" height="10"/><rect class="cls-2" x="250" y="320" width="10" height="10"/><rect class="cls-2" x="290" y="320" width="10" height="10"/><rect class="cls-2" x="310" y="320" width="10" height="10"/></g></svg>